# xmcd
#
# Track frame offsets: 
#        150
#        22073
#        35622
#        58416
#        72618
#        88448
#        110983
#        126140
#        146126
#        160828
#        175228
#        190844
#        201080
#        213786
#        227504
#        246006
#        258711
#        272990
#        289377
#        306023
#        325307
#
# Disc length: 4558 seconds
#
# Revision: 0
# Processed by: cddbd v1.5.2PL0 Copyright (c) Steve Scherf et al.
# Submitted via: ExactAudioCopyFreeDBPlugin 1.0
#
DISCID=5711cc15
DTITLE=Ray Skjelbred - Plays Blues and Boogie Woogie
DYEAR=2002
DGENRE=Blues
TTITLE0=Comiskey Blues
TTITLE1=County Jail Blues
TTITLE2=Hull House
TTITLE3=Bluebird Blues
TTITLE4=Riverside Blues
TTITLE5=Midnight Hour Blues
TTITLE6=Neighborhood Stomp
TTITLE7=George Zack Blues
TTITLE8=My Daddy Rocks Me
TTITLE9=Barrelhouse Blues
TTITLE10=On The Wall
TTITLE11=Blues For Celest Holm
TTITLE12=Tuck Away My Lonesome Blues
TTITLE13=Fan It
TTITLE14=Shoeshiner's Drag
TTITLE15=The Alligator Pond Went Dry
TTITLE16=Take Your Burden To The Lord
TTITLE17=Cathedral Blues
TTITLE18=You've Got To Give Me Some
TTITLE19=The Mooche
TTITLE20=Gray Blues
EXTD=
EXTT0=
EXTT1=
EXTT2=
EXTT3=
EXTT4=
EXTT5=
EXTT6=
EXTT7=
EXTT8=
EXTT9=
EXTT10=
EXTT11=
EXTT12=
EXTT13=
EXTT14=
EXTT15=
EXTT16=
EXTT17=
EXTT18=
EXTT19=
EXTT20=
PLAYORDER=
